<?xml version="1.0" encoding="UTF-8"?>
<svg id="Capa_1" data-name="Capa 1" xmlns="http://www.w3.org/2000/svg" viewBox="0 0 32 31.94">
  <defs>
    <style>
      .cls-1 {
        fill: #e28200;
      }
    </style>
  </defs>
  <g id="DDRHTB">
    <g>
      <path class="cls-1" d="M0,27.56c.33,0,.66,.02,1,.02,2.11,0,4.22,0,6.33,0,.12,0,.24,0,.4,0,0,.15,0,.26,0,.37,0,1.22,0,2.43,0,3.65,0,.11,.01,.23,.02,.34H0v-4.37Z"/>
      <path class="cls-1" d="M8.81,31.94v-4.33h7.75v4.33h-7.75Z"/>
      <path class="cls-1" d="M17.62,31.94c0-.29,.03-.58,.03-.87,0-1.04,0-2.08,0-3.12,0-.11,0-.22,.02-.35h7.7v4.34h-7.75Z"/>
      <path class="cls-1" d="M0,16.57H7.7v4.37c-.09,0-.17,.02-.25,.02-2.42,0-4.85,0-7.27,0-.06,0-.12-.01-.18-.02,0-.73,0-1.46,0-2.19,.33,0,.67,0,1,0,.41,0,.65-.21,.65-.55,0-.34-.24-.54-.65-.55-.33,0-.66-.02-.99-.03,0-.35,0-.71,0-1.06Zm4.41,2.19c.36,0,.73,0,1.09,0,.34,0,.56-.23,.57-.54,0-.31-.21-.55-.55-.55-.73-.01-1.46-.01-2.18,0-.34,0-.57,.24-.57,.54,0,.31,.24,.55,.59,.55,.35,0,.71,0,1.06,0Z"/>
      <path class="cls-1" d="M21.32,11.77c.79,1.05,1.57,2.1,2.36,3.15,.25,.33,.23,.38-.18,.47-3.49,.74-6.97,1.49-10.46,2.22-.13,.03-.27-.02-.41-.03,.03-.13,.03-.27,.08-.37,1.69-3.15,3.38-6.3,5.08-9.45,.18-.33,.25-.34,.45-.08,.78,1.04,1.56,2.08,2.34,3.12,.02,.02,.03,.05,.05,.1-.71,.53-1.41,1.06-2.12,1.59-.11,.08-.22,.17-.28,.28-.13,.23-.1,.47,.1,.65,.22,.2,.47,.21,.71,.04,.46-.34,.92-.69,1.38-1.03,.3-.22,.61-.44,.91-.66h0Z"/>
      <path class="cls-1" d="M22.08,26.47v-4.38h7.7v4.38h-7.7Z"/>
      <path class="cls-1" d="M4.44,26.46v-4.38h7.67v4.38H4.44Z"/>
      <path class="cls-1" d="M13.25,26.47v-4.38h7.69v4.38h-7.69Z"/>
      <path class="cls-1" d="M25.35,20.95h-7.68v-3.19c.52-.11,1.07-.23,1.61-.34,1.22-.26,2.43-.57,3.66-.76,.78-.13,1.59-.09,2.41-.12v4.42Z"/>
      <path class="cls-1" d="M21.33,11.77c-.22-.29-.44-.58-.67-.9,.61-.46,1.19-.92,1.8-1.35,.41-.29,.61-.63,.54-1.13-.03-.21-.03-.42-.04-.62-.05-.73,.21-1.32,.79-1.77,.36-.28,.73-.55,1.11-.83-.16-.22-.32-.41-.46-.62-.21-.31-.18-.6,.12-.82,1.52-1.15,3.04-2.3,4.58-3.42,.71-.52,1.65-.37,2.22,.3,.11,.13,.21,.26,.3,.4,.61,.84,.49,1.79-.34,2.42-1.36,1.03-2.73,2.05-4.09,3.07-.1,.07-.2,.15-.3,.22-.39,.28-.65,.25-.96-.14-.13-.17-.26-.35-.4-.53-.41,.31-.82,.58-1.18,.91-.16,.14-.25,.4-.28,.63-.04,.26,0,.54,.03,.81,.07,.8-.21,1.44-.86,1.92-.65,.47-1.28,.96-1.92,1.45,0,0,0,0,0,0Zm5.23-6.18c.3-.23,.59-.44,.87-.65,1.02-.77,2.05-1.53,3.07-2.3,.48-.36,.51-.6,.14-1.09-.03-.03-.05-.07-.07-.1-.31-.41-.57-.45-.98-.14-1.27,.95-2.55,1.91-3.82,2.86-.05,.04-.1,.09-.17,.14,.32,.43,.64,.84,.96,1.27Z"/>
      <path class="cls-1" d="M16.54,18.01v2.93h-7.7v-4.35h2.9c-.09,.24-.21,.47-.24,.71-.13,.92,.66,1.62,1.59,1.43,1.08-.23,2.16-.46,3.23-.69,.06-.01,.12-.02,.21-.03Z"/>
    </g>
  </g>
</svg>