<?xml version="1.0" encoding="UTF-8"?>
<svg id="Capa_1" data-name="Capa 1" xmlns="http://www.w3.org/2000/svg" viewBox="0 0 32 31.99">
  <defs>
    <style>
      .cls-1 {
        fill: #e28200;
      }
    </style>
  </defs>
  <g id="QjViYA">
    <g>
      <path class="cls-1" d="M19.5,0c.08,.04,.16,.08,.25,.11,.4,.15,.74,.4,.86,.8,.12,.41,.4,.54,.75,.68,4.27,1.78,7.08,4.89,8.45,9.3,.33,1.06,.48,2.15,.55,3.25,0,.07,.02,.14,.03,.24,.14,.03,.29,.04,.42,.08,.66,.17,1.13,.74,1.18,1.45,.02,.4,.02,.81,0,1.22-.05,.82-.62,1.41-1.44,1.51-.11,.01-.23,.02-.34,.02-9.46,0-18.93,0-28.39,0-.62,0-1.16-.17-1.51-.7C.16,17.76,.1,17.53,0,17.31c0-.52,0-1.04,0-1.56,.18-.63,.53-1.1,1.19-1.28,.14-.04,.28-.05,.42-.08,0-.09,.02-.16,.03-.24,.07-1.1,.23-2.19,.55-3.25C3.56,6.48,6.37,3.38,10.64,1.6c.34-.14,.63-.27,.75-.68,.12-.4,.47-.65,.86-.8C12.34,.08,12.42,.04,12.5,0c2.33,0,4.67,0,7,0Zm-4.06,1.08c-.8,0-1.54,0-2.27,0-.75,0-.88,.12-.88,.86,0,3.12,0,6.25,0,9.37,0,.17,0,.33-.03,.5-.04,.27-.21,.43-.48,.45-.29,.02-.49-.11-.56-.39-.04-.14-.04-.29-.04-.43,0-2.83,0-5.67,0-8.5,0-.12,0-.24,0-.41-2.51,.99-4.5,2.54-6.02,4.68-1.51,2.13-2.32,4.5-2.44,7.14H29.28c-.14-2.87-1.08-5.42-2.84-7.67-1.48-1.88-3.34-3.25-5.62-4.15v.42c0,2.83,0,5.67,0,8.5,0,.13,0,.27-.03,.4-.07,.27-.26,.42-.55,.41-.29-.02-.46-.18-.5-.46-.02-.16-.02-.33-.02-.5,0-3.16,0-6.31,0-9.47,0-.6-.17-.76-.76-.76-.58,0-1.17,0-1.75,0-.2,0-.41,0-.64,0v.48c0,3.63,0,7.27,0,10.9,0,.16,0,.34-.05,.49-.07,.25-.25,.38-.51,.37-.26,0-.44-.13-.51-.38-.04-.16-.05-.33-.05-.49,0-3.63,0-7.27,0-10.9v-.47Zm.56,14.41c-3.85,0-7.7,0-11.56,0-.92,0-1.83,0-2.75,0-.4,0-.59,.18-.61,.55-.02,.32-.02,.65,0,.97,.02,.37,.21,.53,.58,.55,.11,0,.23,0,.34,0,9.33,0,18.66,0,27.98,0,.1,0,.21,0,.31,0,.42-.01,.6-.19,.61-.62,0-.21,0-.42,0-.62,0-.7-.13-.83-.84-.83-4.7,0-9.39,0-14.09,0Z"/>
      <path class="cls-1" d="M0,24.37c.18-.31,.45-.38,.79-.37,.61,.02,1.23,0,1.82,0,.11-.39,.16-.78,.32-1.11,.53-1.11,1.46-1.56,2.66-1.56,6.13,0,12.27,0,18.4,0,.98,0,1.96,0,2.93,.04,1.04,.05,1.96,.81,2.25,1.8,.07,.23,.16,.32,.41,.31,.58-.02,1.17-.01,1.75,0,.48,0,.66,.19,.66,.67,0,1.32,0,2.64,0,3.97,0,.49-.19,.68-.68,.68-.58,0-1.17,0-1.75,0-.2,0-.28,.04-.33,.26-.36,1.68-1.86,2.92-3.58,2.93-1.31,.01-2.63,.03-3.93-.06-1.67-.11-3.1-.84-4.27-2.04-.34-.35-.62-.75-.91-1.15-.37-.5-.74-.51-1.08,0-.77,1.18-1.79,2.08-3.08,2.65-.74,.33-1.51,.55-2.32,.56-1.37,.02-2.75,.08-4.12-.03-1.41-.11-2.4-.93-2.95-2.23-.13-.3-.27-.4-.59-.39-.55,.03-1.1,0-1.66,.01-.33,.01-.59-.08-.75-.39v-4.56Zm16-1.98c-3.19,0-6.37,0-9.56,0-.34,0-.69,0-1.03,0-.98,.03-1.65,.64-1.67,1.58-.02,1.5-.03,3,.01,4.5,.04,1.23,1.02,2.33,2.25,2.41,1.33,.09,2.66,.07,3.99,.03,1.33-.05,2.52-.56,3.49-1.48,.47-.45,.85-.99,1.26-1.5,.66-.82,1.86-.82,2.5,.03,.14,.19,.27,.39,.42,.58,1.02,1.36,2.38,2.2,4.07,2.33,1.3,.11,2.62,.09,3.93,.05,1.46-.04,2.53-1.12,2.57-2.58,.04-1.47,.01-2.94,0-4.4,0-.11-.02-.23-.05-.34-.21-.78-.83-1.21-1.75-1.21-3.49,0-6.98,0-10.46,0Zm13.34,3.76c0,.49,0,.96,0,1.44,0,.05,.13,.13,.2,.13,.39,.01,.79,0,1.18,0,.06,0,.12-.04,.16-.05v-1.52h-1.55ZM2.63,28.23v-1.52H1.09v1.52h1.54Zm26.74-3.2h1.53v-.48c-.4,0-.78,0-1.16,0-.45,0-.45,0-.38,.48Zm-28.26,.06c-.08,.49-.08,.49,.38,.49,.26,0,.52,0,.78,0,.42,0,.45-.05,.34-.49H1.11Z"/>
      <path class="cls-1" d="M9.78,23.47c1.09,0,2.19,0,3.28,0,.13,0,.27,0,.4,.03,.26,.06,.39,.25,.39,.5,0,.25-.13,.44-.39,.49-.14,.03-.29,.03-.43,.03-2.09,0-4.18,0-6.27,0-.1,0-.21,0-.31,0-.38,.03-.56,.22-.57,.61,0,.61,0,1.23,0,1.84,0,.11,0,.23-.03,.34-.06,.27-.25,.4-.52,.4-.26,0-.49-.2-.49-.47-.01-.8-.04-1.6,.02-2.4,.05-.72,.68-1.32,1.42-1.34,1.17-.03,2.35,0,3.53,0,0,0,0-.01,0-.02Z"/>
      <path class="cls-1" d="M15.99,24.51c-.2,0-.4,.02-.59,0-.27-.03-.46-.25-.46-.51,0-.26,.19-.49,.46-.5,.4-.02,.81-.02,1.21,0,.26,.02,.46,.26,.44,.52-.02,.26-.16,.46-.44,.49-.21,.02-.41,0-.62,0,0,0,0,0,0,0Z"/>
    </g>
  </g>
</svg>