<?xml version="1.0" encoding="UTF-8"?>
<svg id="Capa_1" data-name="Capa 1" xmlns="http://www.w3.org/2000/svg" viewBox="0 0 32 32.09">
  <defs>
    <style>
      .cls-1 {
        fill: #e28200;
      }
    </style>
  </defs>
  <g id="hSFix1">
    <g>
      <path class="cls-1" d="M26.54,32.09c-.13-.03-.26-.07-.39-.1-.65-.15-1.19-.49-1.66-.96-3.09-3.1-6.19-6.19-9.29-9.29-.59-.59-.59-1.13,0-1.73,.15-.15,.31-.28,.43-.39-3.47-3.47-6.9-6.9-10.41-10.41-.07,.1-.17,.27-.31,.41-.54,.52-1.2,.48-1.64-.12-1.01-1.36-2.01-2.72-3.01-4.09-.36-.5-.32-1.01,.11-1.44,.56-.57,1.12-1.13,1.68-1.68,.42-.42,.94-.46,1.42-.12,1.37,1,2.75,2.01,4.11,3.03,.6,.45,.64,1.1,.11,1.65-.13,.13-.28,.24-.4,.35,3.48,3.48,6.91,6.91,10.42,10.42,.1-.12,.21-.3,.35-.45,.58-.59,1.13-.59,1.71,0,2.59,2.58,5.17,5.17,7.76,7.76,.57,.57,1.15,1.12,1.7,1.71,1.53,1.65,1,4.29-1.02,5.17-.31,.14-.65,.2-.98,.29h-.69Z"/>
      <path class="cls-1" d="M2.9,32.09c-.69-.14-1.34-.37-1.87-.87-1.26-1.18-1.38-3.2-.23-4.5,.08-.09,.17-.18,.26-.27,3.14-3.14,6.28-6.28,9.42-9.42,.06-.06,.12-.11,.21-.19,.45,.46,.9,.91,1.35,1.36,.42,.42,.85,.84,1.26,1.27,.07,.07,.12,.23,.08,.31-.43,1.06-.28,2.02,.46,2.89,.02,.02,.03,.05,.06,.1-.08,.08-.15,.16-.23,.24-2.52,2.52-5.05,5.03-7.55,7.56-.72,.73-1.46,1.36-2.51,1.52h-.69Z"/>
      <path class="cls-1" d="M14.91,12.59c.73-.73,1.44-1.45,2.16-2.14,.15-.14,.18-.26,.12-.46-.87-2.89-.32-5.5,1.77-7.68C20.73,.46,22.97-.25,25.52,.08c.3,.04,.54,.17,.65,.47,.11,.32,0,.57-.23,.79-.5,.5-1.01,1-1.51,1.51-1.84,1.92-1,5.01,1.54,5.63,1.13,.27,2.16,.03,3.03-.76,.55-.51,1.08-1.05,1.6-1.59,.25-.25,.52-.41,.87-.28,.35,.13,.43,.43,.47,.77,.2,1.68-.12,3.25-.92,4.74-1.34,2.48-4.4,4.13-7.2,3.82-.58-.06-1.15-.2-1.72-.33-.16-.04-.26-.03-.38,.09-.29,.31-.6,.61-.91,.93-.56-.51-1.18-.8-1.92-.76-.34,.02-.67,.14-1.01,.19-.09,.02-.23,0-.29-.05-.89-.87-1.76-1.75-2.68-2.66Z"/>
    </g>
  </g>
</svg>